<svg width="39" height="39" viewBox="0 0 39 39" fill="none" xmlns="http://www.w3.org/2000/svg">
<path d="M18.4276 27V16.0909H20.5511V27H18.4276ZM19.5 14.4077C19.1307 14.4077 18.8134 14.2846 18.5483 14.0384C18.2879 13.7874 18.1577 13.4891 18.1577 13.1435C18.1577 12.7931 18.2879 12.4948 18.5483 12.2486C18.8134 11.9976 19.1307 11.8722 19.5 11.8722C19.8693 11.8722 20.1842 11.9976 20.4446 12.2486C20.7098 12.4948 20.8423 12.7931 20.8423 13.1435C20.8423 13.4891 20.7098 13.7874 20.4446 14.0384C20.1842 14.2846 19.8693 14.4077 19.5 14.4077Z" fill="#F5F5F5"/>
<circle cx="19.5" cy="19.5" r="19" stroke="#F5F5F5"/>
</svg>
